<?xml version="1.0" standalone="no"?><!DOCTYPE svg PUBLIC "-//W3C//DTD SVG 1.1//EN" "http://www.w3.org/Graphics/SVG/1.1/DTD/svg11.dtd" ><svg xmlns="http://www.w3.org/2000/svg"><metadata></metadata><defs><font id="Founder:FZYouHei-R-GB18030	Regular" horiz-adv-x="1000"><font-face font-family="FZYouHei-R-GB18030" font-weight="400" font-stretch="normal" units-per-em="1000" panose-1="2 0 0 0 0 0 0 0 0 0" ascent="887" descent="-263" x-height="0" bbox="8 -108 984 819" underline-thickness="50" underline-position="-213" unicode-range="U+0069-ff1a" /><missing-glyph horiz-adv-x="1000" d="M210 -24 l-104 0 l0 113 l104 0 l0 -113 ZM215 725 l-18 -537 l-80 0 l-16 537 l114 0 Z" /><glyph glyph-name="" unicode="i" d="M68 -23 l0 543 l95 0 l0 -543 l-95 0 ZM68 625 l0 104 l96 0 l0 -104 l-96 0 Z" /><glyph glyph-name="" unicode="o" d="M307 531 q250 -11 262 -284 q-8 -276 -269 -284 q-251 15 -265 280 q11 279 272 288 ZM303 40 q161 6 165 205 q-7 200 -165 210 q-165 -6 -170 -210 q7 -194 170 -205 Z" /><glyph glyph-name="" unicode="v" d="M541 520 l-217 -543 l-108 0 l-208 543 l105 0 q136 -394 143 -415 q1 -6 7 -28 q7 -26 8 -30 l2 0 q1 6 12 41 q5 13 6 17 q6 21 147 415 l103 0 Z" /><glyph glyph-name="" unicode="&#x4e8c;" d="M143 611 l0 78 l712 0 l0 -78 l-712 0 ZM54 -16 l0 77 l891 0 l0 -77 l-891 0 Z" /><glyph glyph-name="" unicode="&#x4f17;" d="M896 388 q-258 93 -402 291 q-135 -206 -382 -301 q-29 36 -66 56 q325 114 429 379 l74 -24 q-9 -23 -19 -44 q159 -208 432 -285 q-42 -30 -66 -72 ZM901 -98 q-154 99 -230 279 q-47 -179 -198 -288 q-31 26 -79 39 q196 122 221 360 q9 70 7 164 l78 -7 q0 -78 -7 -143 q76 -240 279 -347 q-40 -22 -71 -57 ZM448 53 q-61 73 -132 145 q-56 -182 -208 -291 q-38 33 -80 44 q188 116 230 327 q13 76 13 169 l80 -9 q-6 -107 -16 -163 q103 -95 166 -172 l-53 -50 Z" /><glyph glyph-name="" unicode="&#x4fdd;" d="M406 457 l0 300 l462 0 l0 -300 l-195 0 l0 -113 l270 0 l0 -67 l-229 0 q98 -150 264 -240 q-39 -19 -66 -53 q-146 94 -239 256 l0 -345 l-73 0 l0 343 q-97 -163 -254 -257 q-26 27 -64 46 q176 99 276 250 l-229 0 l0 67 l271 0 l0 113 l-194 0 ZM186 -105 l0 563 q-48 -69 -99 -122 q-30 29 -68 39 q178 190 254 433 l70 -33 q-34 -100 -83 -194 l0 -686 l-74 0 ZM480 524 l313 0 l0 165 l-313 0 l0 -165 Z" /><glyph glyph-name="" unicode="&#x4fe1;" d="M397 -105 l0 327 l487 0 l0 -327 l-77 0 l0 58 l-335 0 l0 -58 l-75 0 ZM184 -106 l0 560 q-43 -67 -93 -126 q-28 31 -65 48 q159 179 233 432 l72 -33 q-31 -96 -73 -185 l0 -696 l-74 0 ZM328 611 l0 69 l309 0 q-41 52 -91 101 l75 29 q56 -51 105 -117 l-21 -13 l251 0 l0 -69 l-628 0 ZM472 154 l0 -132 l335 0 l0 132 l-335 0 ZM397 310 l0 65 l484 0 l0 -65 l-484 0 ZM398 461 l0 65 l483 0 l0 -65 l-483 0 Z" /><glyph glyph-name="" unicode="&#x516c;" d="M778 -108 q-12 20 -43 70 q-7 11 -10 16 l-435 -36 q-48 -3 -97 -19 l-36 69 q47 15 84 64 q140 192 222 392 l75 -37 q-114 -241 -228 -392 l371 26 q-72 108 -122 174 l70 31 q121 -156 212 -305 l-63 -53 ZM899 284 q-235 161 -341 480 l71 29 q102 -318 353 -451 q-52 -23 -83 -58 ZM102 275 q-34 28 -75 42 q232 164 313 455 l76 -32 q-105 -310 -314 -465 Z" /><glyph glyph-name="" unicode="&#x5173;" d="M138 524 l0 72 l396 0 q99 99 174 209 l71 -37 q-60 -83 -148 -172 l229 0 l0 -72 l-322 0 q0 -77 -4 -166 l377 0 l0 -72 l-366 0 q106 -241 404 -311 q-36 -32 -60 -75 q-277 82 -388 317 q-79 -223 -384 -324 q-26 40 -64 67 q331 94 390 326 l-356 0 l0 72 l367 0 q3 50 5 166 l-321 0 ZM375 598 q-55 69 -160 167 l70 36 q82 -75 149 -154 l-59 -49 Z" /><glyph glyph-name="" unicode="&#x53ef;" d="M184 152 l0 378 l382 0 l0 -378 l-382 0 ZM52 664 l0 72 l896 0 l0 -72 l-159 0 l0 -622 q3 -141 -144 -138 q-55 1 -102 7 q-4 49 -20 81 q71 -11 115 -11 q76 -4 72 75 l0 608 l-658 0 ZM261 221 l227 0 l0 239 l-227 0 l0 -239 Z" /><glyph glyph-name="" unicode="&#x53f7;" d="M208 494 l0 265 l582 0 l0 -265 l-582 0 ZM51 338 l0 67 l896 0 l0 -67 l-593 0 l-31 -96 l490 0 l-29 -195 q-18 -149 -171 -144 q-69 1 -130 12 q-4 45 -23 76 q90 -12 149 -13 q86 -3 96 78 l18 120 l-502 0 l54 162 l-224 0 ZM286 559 l427 0 l0 135 l-427 0 l0 -135 Z" /><glyph glyph-name="" unicode="&#x540e;" d="M316 -105 l0 425 l538 0 l0 -425 l-75 0 l0 70 l-387 0 l0 -70 l-76 0 ZM110 -82 q-42 28 -80 34 q152 174 146 444 l0 325 q436 5 631 57 l55 -64 q-223 -49 -610 -61 l0 -128 l690 0 l0 -68 l-690 0 l0 -61 q5 -289 -142 -478 ZM392 251 l0 -217 l387 0 l0 217 l-387 0 Z" /><glyph glyph-name="" unicode="&#x5728;" d="M218 -105 l0 403 q-60 -58 -125 -102 q-28 32 -70 54 q196 117 323 349 l-254 0 l0 71 l289 0 q36 81 54 149 l77 -26 q-17 -61 -43 -123 l470 0 l0 -71 l-503 0 q-58 -116 -139 -215 l0 -489 l-79 0 ZM375 276 l0 68 l224 0 l0 190 l78 0 l0 -190 l224 0 l0 -68 l-224 0 l0 -262 l267 0 l0 -69 l-606 0 l0 69 l261 0 l0 262 l-224 0 Z" /><glyph glyph-name="" unicode="&#x5b58;" d="M223 -105 l0 412 q-66 -66 -134 -111 q-27 32 -70 53 q196 117 325 354 l-258 0 l0 71 l292 0 q30 68 51 144 l77 -26 q-16 -59 -41 -118 l470 0 l0 -71 l-502 0 q-54 -112 -133 -210 l0 -498 l-77 0 ZM375 175 l0 71 l267 0 l0 68 q79 54 124 99 l-334 0 l0 69 l443 0 l0 -63 q-78 -77 -157 -134 l0 -39 l227 0 l0 -71 l-227 0 l0 -152 q1 -119 -118 -118 q-37 0 -81 6 q0 40 -21 80 q56 -10 87 -10 q59 -2 57 53 l0 141 l-267 0 Z" /><glyph glyph-name="" unicode="&#x5fae;" d="M626 -105 q-31 25 -69 38 q129 88 191 202 q-46 102 -69 216 q-16 -35 -34 -64 q-26 26 -56 37 q102 170 134 476 l67 -22 q-10 -91 -28 -170 l192 0 l0 -64 l-62 0 q-2 -254 -72 -409 q63 -115 164 -189 q-43 -20 -68 -47 q-77 71 -132 167 q-60 -98 -158 -171 ZM312 -76 q-32 25 -60 34 q95 88 93 216 q3 66 0 137 l230 0 l0 -201 l69 52 l42 -44 l-111 -90 q-18 -16 -42 -46 l-41 54 q20 24 18 72 l0 142 l-99 0 q0 -57 -1 -87 q0 -145 -98 -239 ZM165 -105 l0 415 q-39 -45 -81 -82 q-31 33 -62 47 q130 108 221 279 l54 -45 q-24 -51 -61 -106 l0 -508 l-71 0 ZM306 521 l0 218 l61 0 l0 -157 l70 0 l0 222 l62 0 l0 -222 l69 0 l0 157 l61 0 l0 -218 l-323 0 ZM747 544 q-12 -47 -27 -91 q23 -139 62 -237 q44 126 47 328 l-82 0 ZM103 520 q-29 27 -64 39 q120 105 187 246 l59 -42 q-80 -150 -182 -243 ZM300 386 l0 62 l320 0 l0 -62 l-320 0 Z" /><glyph glyph-name="" unicode="&#x624b;" d="M139 426 l0 69 l335 0 l0 159 q-178 -14 -319 -14 q-11 38 -37 71 q430 3 693 60 l48 -68 q-115 -24 -304 -42 l0 -166 l305 0 l0 -69 l-305 0 l0 -155 l400 0 l0 -71 l-400 0 l0 -174 q0 -124 -134 -124 q-46 0 -100 8 q-5 47 -22 82 q70 -11 109 -11 q67 -1 66 68 l0 151 l-432 0 l0 71 l432 0 l0 155 l-335 0 Z" /><glyph glyph-name="" unicode="&#x626b;" d="M449 320 l0 68 l364 0 l0 248 l-385 0 l0 70 l462 0 l0 -798 l-77 0 l0 79 l-405 0 l0 71 l405 0 l0 262 l-364 0 ZM66 532 l0 67 l148 0 l0 206 l73 0 l0 -206 l119 0 l0 -67 l-119 0 l0 -170 l102 49 l32 -54 l-134 -68 l0 -269 q1 -117 -104 -116 q-25 0 -75 8 q-3 41 -20 73 q55 -9 82 -9 q46 -2 44 54 l0 222 l-137 -69 l-45 58 l182 86 l0 205 l-148 0 Z" /><glyph glyph-name="" unicode="&#x667a;" d="M202 -105 l0 415 l611 0 l0 -415 l-75 0 l0 54 l-462 0 l0 -54 l-74 0 ZM569 385 l0 338 l333 0 l0 -338 l-333 0 ZM137 580 q-31 22 -62 30 q85 94 120 200 l59 -25 q-12 -33 -25 -62 l276 0 l0 -61 l-146 0 q-3 -55 -9 -102 l180 0 l0 -61 l-194 0 q-1 -2 -2 -6 q-2 -5 -3 -7 q104 -46 197 -105 l-33 -61 q-88 60 -192 112 q-53 -82 -196 -145 q-23 30 -61 48 q174 63 215 164 l-204 0 l0 61 l222 0 q9 49 11 102 l-94 0 q-25 -43 -59 -82 ZM276 103 l0 -94 l462 0 l0 94 l-462 0 ZM276 251 l0 -92 l462 0 l0 92 l-462 0 ZM639 447 l194 0 l0 214 l-194 0 l0 -214 Z" /><glyph glyph-name="" unicode="&#x673a;" d="M383 -105 q-33 29 -75 40 q175 146 172 443 q2 88 1 188 q-1 98 -4 182 l332 0 l0 -701 q-2 -52 42 -49 l13 0 q35 -3 44 50 q9 42 17 103 q25 -27 59 -42 q-6 -53 -15 -91 q-20 -97 -100 -93 l-30 0 q-108 -5 -104 114 l0 640 l-179 0 q0 -109 0 -172 q-1 -71 -2 -125 q0 -334 -171 -487 ZM205 -105 l0 472 q-49 -145 -119 -230 q-29 25 -65 37 q120 134 174 353 l-137 0 l0 67 l147 0 l0 210 l73 0 l0 -210 l135 0 l0 -67 l-135 0 l0 -114 l39 15 q59 -67 104 -140 l-50 -41 q-38 61 -93 132 l0 -484 l-73 0 Z" /><glyph glyph-name="" unicode="&#x6ce8;" d="M354 550 l0 70 l569 0 l0 -70 l-251 0 l0 -225 l218 0 l0 -70 l-218 0 l0 -244 l283 0 l0 -70 l-643 0 l0 70 l281 0 l0 244 l-212 0 l0 70 l212 0 l0 225 l-239 0 ZM151 -93 l-68 52 q94 155 148 316 l60 -42 q-53 -168 -140 -326 ZM296 581 q-89 72 -186 130 l53 54 q99 -60 168 -117 l-35 -67 ZM226 346 q-101 73 -186 117 l49 56 q91 -48 172 -107 l-35 -66 ZM646 622 q-49 83 -122 161 l78 25 q65 -66 113 -144 l-69 -42 Z" /><glyph glyph-name="" unicode="&#x7801;" d="M61 665 l0 66 l363 0 l0 -66 l-151 0 q-18 -104 -58 -204 l178 0 l0 -478 l-67 0 l0 49 l-112 0 l0 -70 l-68 0 l0 360 q-33 -54 -69 -95 q-31 30 -64 41 q140 150 190 397 l-142 0 ZM761 -96 q-52 1 -104 9 q-1 38 -20 78 q73 -12 112 -13 q84 -2 88 84 l15 253 l-374 0 l32 319 l73 -5 l-26 -246 l176 0 l32 307 l-293 0 l0 68 l374 0 l-38 -375 l124 0 l-21 -333 q-7 -146 -150 -146 ZM214 397 l0 -301 l112 0 l0 301 l-112 0 ZM435 113 l0 68 l361 0 l0 -68 l-361 0 Z" /><glyph glyph-name="" unicode="&#x7ef4;" d="M448 -105 l0 556 q-33 -51 -68 -94 q-26 27 -66 40 q147 168 215 409 l69 -30 q-23 -74 -58 -154 l399 0 l0 -65 l-179 0 l0 -131 l158 0 l0 -63 l-158 0 l0 -132 l159 0 l0 -63 l-159 0 l0 -137 l197 0 l0 -64 l-435 0 l0 -72 l-74 0 ZM91 186 l-33 59 q30 13 53 43 q46 57 103 147 l-82 -6 q-31 -2 -62 -12 l-32 57 q32 15 49 45 q82 130 144 281 l66 -25 q-78 -170 -149 -281 l107 6 q36 61 63 115 l62 -29 q-87 -169 -199 -314 l167 27 l17 -61 l-206 -34 q-43 -6 -68 -18 ZM522 168 l0 -137 l166 0 l0 137 l-166 0 ZM78 -38 l-38 68 l317 92 l29 -56 l-308 -104 ZM522 363 l0 -132 l166 0 l0 132 l-166 0 ZM522 557 l0 -131 l166 0 l0 131 l-166 0 ZM750 634 q-50 66 -111 125 l64 31 q68 -68 100 -111 l-53 -45 Z" /><glyph glyph-name="" unicode="&#x80fd;" d="M120 -105 l0 540 l360 0 l0 -427 q3 -110 -102 -107 q-20 0 -54 2 q-3 37 -20 69 q30 -3 60 -3 q45 -1 44 48 l0 65 l-216 0 l0 -187 l-72 0 ZM685 -79 q-114 -3 -111 111 l0 320 l73 0 l0 -164 q135 52 221 113 l51 -54 q-107 -65 -272 -127 l0 -82 q0 -49 48 -50 l116 0 q50 -2 65 55 q8 26 15 63 q30 -35 62 -47 q-4 -18 -12 -48 q-1 -3 -1 -5 q-25 -88 -120 -85 l-135 0 ZM688 388 q-119 -5 -114 110 l0 305 l73 0 l0 -169 q133 53 225 119 l49 -54 q-125 -79 -274 -134 l0 -61 q1 -48 49 -49 l109 0 q46 -4 61 54 q10 31 16 59 q27 -34 62 -47 q-5 -23 -14 -50 q-25 -87 -115 -83 l-127 0 ZM489 474 q-9 16 -21 34 l-313 -13 q-34 -2 -80 -11 l-27 68 q40 9 77 51 q80 89 152 211 l68 -33 q-80 -126 -174 -223 l255 10 q-48 64 -85 106 l60 30 q89 -100 146 -191 l-58 -39 ZM192 374 l0 -89 l216 0 l0 89 l-216 0 ZM192 228 l0 -89 l216 0 l0 89 l-216 0 Z" /><glyph glyph-name="" unicode="&#xff1a;" d="M314 182 l0 -135 l-129 0 l0 135 l129 0 ZM317 580 l0 -134 l-129 0 l0 134 l129 0 Z" /></font>
</defs>
</svg>
